<svg xmlns="http://www.w3.org/2000/svg" xmlns:xlink="http://www.w3.org/1999/xlink" width="500" zoomAndPan="magnify" viewBox="0 0 375 374.999991" height="500" preserveAspectRatio="xMidYMid meet" version="1.0"><defs><g/><clipPath id="b322a3ac94"><path d="M 209.765625 141.574219 L 244.289062 141.574219 L 244.289062 178.660156 L 209.765625 178.660156 Z M 209.765625 141.574219 " clip-rule="nonzero"/></clipPath><clipPath id="b5e881c328"><path d="M 223.828125 131.613281 L 229.5625 131.613281 L 229.5625 193.945312 L 223.828125 193.945312 Z M 223.828125 131.613281 " clip-rule="nonzero"/></clipPath></defs><g clip-path="url(#b322a3ac94)"><path fill="#f0592a" d="M 209.765625 141.574219 L 244.289062 141.574219 L 244.289062 178.660156 L 209.765625 178.660156 Z M 209.765625 141.574219 " fill-opacity="1" fill-rule="nonzero"/></g><g fill="#f6f6e9" fill-opacity="1"><g transform="translate(88.435429, 186.162097)"><g><path d="M 29.78125 0.96875 C 25.125 0.96875 20.976562 0.394531 17.34375 -0.75 C 13.71875 -1.90625 10.691406 -3.414062 8.265625 -5.28125 C 5.847656 -7.15625 4 -9.207031 2.71875 -11.4375 L 10.015625 -20.359375 L 11.171875 -20.359375 C 13.191406 -17.359375 15.753906 -14.96875 18.859375 -13.1875 C 21.972656 -11.414062 25.613281 -10.53125 29.78125 -10.53125 C 33.332031 -10.53125 36.007812 -11.28125 37.8125 -12.78125 C 39.625 -14.28125 40.53125 -16.347656 40.53125 -18.984375 C 40.53125 -20.578125 40.238281 -21.910156 39.65625 -22.984375 C 39.082031 -24.054688 38.117188 -24.972656 36.765625 -25.734375 C 35.421875 -26.503906 33.597656 -27.164062 31.296875 -27.71875 L 22.65625 -29.6875 C 16.625 -31.070312 12.128906 -33.363281 9.171875 -36.5625 C 6.210938 -39.757812 4.734375 -43.914062 4.734375 -49.03125 C 4.734375 -52.832031 5.679688 -56.171875 7.578125 -59.046875 C 9.484375 -61.929688 12.25 -64.171875 15.875 -65.765625 C 19.507812 -67.359375 23.851562 -68.15625 28.90625 -68.15625 C 34.082031 -68.15625 38.515625 -67.472656 42.203125 -66.109375 C 45.898438 -64.742188 49.019531 -62.65625 51.5625 -59.84375 L 45 -50.828125 L 43.84375 -50.828125 C 41.945312 -52.816406 39.769531 -54.3125 37.3125 -55.3125 C 34.863281 -56.3125 32.0625 -56.8125 28.90625 -56.8125 C 25.257812 -56.8125 22.484375 -56.164062 20.578125 -54.875 C 18.679688 -53.59375 17.734375 -51.816406 17.734375 -49.546875 C 17.734375 -47.429688 18.398438 -45.742188 19.734375 -44.484375 C 21.066406 -43.234375 23.375 -42.253906 26.65625 -41.546875 L 35.484375 -39.703125 C 42.003906 -38.328125 46.734375 -35.992188 49.671875 -32.703125 C 52.617188 -29.410156 54.09375 -25.113281 54.09375 -19.8125 C 54.09375 -15.613281 53.1875 -11.957031 51.375 -8.84375 C 49.570312 -5.738281 46.847656 -3.328125 43.203125 -1.609375 C 39.554688 0.109375 35.082031 0.96875 29.78125 0.96875 Z M 29.78125 0.96875 "/></g></g></g><g fill="#f6f6e9" fill-opacity="1"><g transform="translate(140.978384, 186.162097)"><g><path d="M 7.3125 20.546875 L 7.3125 -50.6875 L 20.03125 -50.6875 L 20.03125 -44.078125 L 21 -43.890625 C 22.5 -46.460938 24.503906 -48.398438 27.015625 -49.703125 C 29.535156 -51.003906 32.476562 -51.65625 35.84375 -51.65625 C 39.925781 -51.65625 43.488281 -50.691406 46.53125 -48.765625 C 49.582031 -46.835938 51.957031 -43.90625 53.65625 -39.96875 C 55.351562 -36.03125 56.203125 -31.148438 56.203125 -25.328125 C 56.203125 -19.535156 55.304688 -14.675781 53.515625 -10.75 C 51.722656 -6.832031 49.234375 -3.898438 46.046875 -1.953125 C 42.859375 -0.00390625 39.179688 0.96875 35.015625 0.96875 C 31.859375 0.96875 29.128906 0.441406 26.828125 -0.609375 C 24.535156 -1.671875 22.59375 -3.320312 21 -5.5625 L 20.03125 -5.375 L 20.03125 20.546875 Z M 31.484375 -9.828125 C 35.285156 -9.828125 38.164062 -11.066406 40.125 -13.546875 C 42.082031 -16.035156 43.0625 -19.960938 43.0625 -25.328125 C 43.0625 -30.679688 42.082031 -34.609375 40.125 -37.109375 C 38.164062 -39.609375 35.285156 -40.859375 31.484375 -40.859375 C 27.929688 -40.859375 25.113281 -39.570312 23.03125 -37 C 20.945312 -34.425781 19.90625 -30.535156 19.90625 -25.328125 C 19.90625 -20.148438 20.945312 -16.269531 23.03125 -13.6875 C 25.113281 -11.113281 27.929688 -9.828125 31.484375 -9.828125 Z M 31.484375 -9.828125 "/></g></g></g><g fill="#f6f6e9" fill-opacity="1"><g transform="translate(196.508457, 186.162097)"><g><path d="M 29.453125 0.96875 C 24.492188 0.96875 20.132812 -0.046875 16.375 -2.078125 C 12.625 -4.117188 9.710938 -7.109375 7.640625 -11.046875 C 5.578125 -14.984375 4.546875 -19.742188 4.546875 -25.328125 C 4.546875 -30.898438 5.578125 -35.660156 7.640625 -39.609375 C 9.710938 -43.566406 12.625 -46.5625 16.375 -48.59375 C 20.132812 -50.632812 24.492188 -51.65625 29.453125 -51.65625 C 34.421875 -51.65625 38.78125 -50.632812 42.53125 -48.59375 C 46.289062 -46.5625 49.210938 -43.566406 51.296875 -39.609375 C 53.378906 -35.660156 54.421875 -30.898438 54.421875 -25.328125 C 54.421875 -19.742188 53.378906 -14.984375 51.296875 -11.046875 C 49.210938 -7.109375 46.289062 -4.117188 42.53125 -2.078125 C 38.78125 -0.046875 34.421875 0.96875 29.453125 0.96875 Z M 29.453125 -9.828125 C 37.328125 -9.828125 41.265625 -14.992188 41.265625 -25.328125 C 41.265625 -30.679688 40.253906 -34.609375 38.234375 -37.109375 C 36.210938 -39.609375 33.285156 -40.859375 29.453125 -40.859375 C 21.585938 -40.859375 17.65625 -35.679688 17.65625 -25.328125 C 17.65625 -14.992188 21.585938 -9.828125 29.453125 -9.828125 Z M 29.453125 -9.828125 "/></g></g></g><g fill="#f6f6e9" fill-opacity="1"><g transform="translate(250.246257, 186.162097)"><g><path d="M 7.3125 0 L 7.3125 -50.6875 L 19.671875 -50.6875 L 19.671875 -43.15625 L 20.640625 -42.96875 C 21.859375 -45.789062 23.460938 -47.859375 25.453125 -49.171875 C 27.453125 -50.492188 29.875 -51.15625 32.71875 -51.15625 C 35.601562 -51.15625 37.796875 -50.664062 39.296875 -49.6875 L 37.140625 -38.703125 L 36.171875 -38.515625 C 35.335938 -38.847656 34.535156 -39.09375 33.765625 -39.25 C 33.003906 -39.40625 32.078125 -39.484375 30.984375 -39.484375 C 27.421875 -39.484375 24.703125 -38.234375 22.828125 -35.734375 C 20.960938 -33.234375 20.03125 -29.226562 20.03125 -23.71875 L 20.03125 0 Z M 7.3125 0 "/></g></g></g><g clip-path="url(#b5e881c328)"><path fill="#252625" d="M 229.5625 131.613281 L 229.5625 193.949219 L 223.828125 193.949219 L 223.828125 131.613281 Z M 229.5625 131.613281 " fill-opacity="1" fill-rule="nonzero"/></g><g fill="#f6f6e9" fill-opacity="1"><g transform="translate(106.0215, 262.930051)"><g><path d="M 34.171875 -11.8125 L 37.40625 -2.609375 C 36.0625 -1.492188 34.367188 -0.625 32.328125 0 C 30.296875 0.625 27.992188 0.9375 25.421875 0.9375 C 20.054688 0.9375 15.984375 -0.519531 13.203125 -3.4375 C 10.421875 -6.351562 9.03125 -10.597656 9.03125 -16.171875 L 9.03125 -39.703125 L 1.484375 -39.703125 L 1.484375 -49.578125 L 9.03125 -49.578125 L 9.03125 -59.234375 L 21.46875 -61.25 L 21.46875 -49.578125 L 35.515625 -49.578125 L 35.515625 -39.703125 L 21.46875 -39.703125 L 21.46875 -17.0625 C 21.46875 -14.601562 21.972656 -12.8125 22.984375 -11.6875 C 24.003906 -10.570312 25.488281 -10.015625 27.4375 -10.015625 C 29.65625 -10.015625 31.585938 -10.613281 33.234375 -11.8125 Z M 34.171875 -11.8125 "/></g></g></g><g fill="#f6f6e9" fill-opacity="1"><g transform="translate(139.446001, 262.930051)"><g><path d="M 21.515625 0 L 8.53125 0 L 8.53125 -65.65625 L 21.515625 -65.65625 Z M 21.515625 0 "/></g></g></g><g fill="#f6f6e9" fill-opacity="1"><g transform="translate(164.473317, 262.930051)"><g><path d="M 8.671875 0 L 8.671875 -39.703125 L 1.65625 -39.703125 L 1.65625 -49.578125 L 8.671875 -49.578125 C 8.160156 -51.671875 7.90625 -53.628906 7.90625 -55.453125 C 7.90625 -58.597656 8.625 -61.285156 10.0625 -63.515625 C 11.5 -65.742188 13.5625 -67.441406 16.25 -68.609375 C 18.945312 -69.785156 22.148438 -70.375 25.859375 -70.375 C 31.335938 -70.375 35.425781 -69.429688 38.125 -67.546875 L 35.203125 -58.375 L 34.265625 -58.203125 C 32.410156 -59.515625 30.03125 -60.171875 27.125 -60.171875 C 24.875 -60.171875 23.1875 -59.625 22.0625 -58.53125 C 20.945312 -57.4375 20.390625 -55.945312 20.390625 -54.0625 C 20.390625 -53.257812 20.441406 -52.519531 20.546875 -51.84375 C 20.648438 -51.164062 20.835938 -50.410156 21.109375 -49.578125 L 35.25 -49.578125 L 35.25 -39.703125 L 21.109375 -39.703125 L 21.109375 0 Z M 8.671875 0 "/></g></g></g><g fill="#f6f6e9" fill-opacity="1"><g transform="translate(195.158625, 262.930051)"><g><path d="M 10.953125 21.015625 C 8.828125 21.015625 6.90625 20.847656 5.1875 20.515625 C 3.46875 20.191406 2.066406 19.757812 0.984375 19.21875 L 2.96875 9.15625 L 3.765625 8.890625 C 4.515625 9.273438 5.441406 9.585938 6.546875 9.828125 C 7.660156 10.066406 8.800781 10.1875 9.96875 10.1875 C 11.976562 10.1875 13.644531 9.925781 14.96875 9.40625 C 16.300781 8.882812 17.429688 8.015625 18.359375 6.796875 C 19.296875 5.585938 20.125 3.90625 20.84375 1.75 L 1.078125 -49.53125 L 14.09375 -49.53125 L 26.40625 -15.09375 L 27.484375 -15.09375 L 39.46875 -49.53125 L 52.140625 -49.53125 L 32.25 3.09375 C 30.65625 7.34375 28.90625 10.765625 27 13.359375 C 25.101562 15.953125 22.859375 17.875 20.265625 19.125 C 17.679688 20.382812 14.578125 21.015625 10.953125 21.015625 Z M 10.953125 21.015625 "/></g></g></g></svg>