<?xml version="1.0" encoding="UTF-8"?>
<svg id="Capa_2" xmlns="http://www.w3.org/2000/svg" viewBox="0 0 264.52 221.19">
  <defs>
    <style>
      .cls-1 {
        fill: #252625;
      }

      .cls-2 {
        fill: #f6f6e9;
      }
    </style>
  </defs>
  <g id="Capa_1-2" data-name="Capa_1">
    <g>
      <path class="cls-2" d="M36.08,92.17c-6.21,0-11.74-.77-16.58-2.29-4.83-1.54-8.87-3.55-12.1-6.04-3.22-2.5-5.69-5.23-7.4-8.21l9.73-11.9h1.54c2.69,4,6.11,7.19,10.25,9.56,4.15,2.36,9.01,3.54,14.56,3.54,4.73,0,8.3-1,10.71-3,2.42-2,3.63-4.76,3.63-8.27,0-2.13-.39-3.9-1.17-5.33-.77-1.43-2.05-2.65-3.85-3.67-1.79-1.03-4.22-1.91-7.29-2.65l-11.52-2.63c-8.04-1.84-14.04-4.9-17.98-9.17-3.95-4.26-5.92-9.8-5.92-16.63,0-5.07,1.26-9.52,3.79-13.35,2.54-3.84,6.23-6.83,11.06-8.96C22.39,1.06,28.18,0,34.92,0s12.81.91,17.73,2.73c4.93,1.82,9.09,4.6,12.48,8.35l-8.75,12.02h-1.54c-2.53-2.65-5.43-4.65-8.71-5.98-3.27-1.33-7-2-11.21-2-4.86,0-8.56.86-11.1,2.58-2.53,1.71-3.79,4.08-3.79,7.1,0,2.82.89,5.07,2.67,6.75,1.78,1.67,4.85,2.97,9.23,3.92l11.77,2.46c8.69,1.83,15,4.95,18.92,9.33,3.93,4.39,5.9,10.12,5.9,17.19,0,5.6-1.21,10.47-3.63,14.63-2.41,4.14-6.04,7.35-10.9,9.65-4.86,2.29-10.83,3.44-17.9,3.44Z"/>
      <path class="cls-2" d="M76.18,193.23V23.29h16.96v8.81l1.29.25c2-3.43,4.67-6.01,8.02-7.75,3.36-1.73,7.28-2.6,11.77-2.6,5.44,0,10.19,1.29,14.25,3.85,4.07,2.57,7.23,6.48,9.5,11.73,2.26,5.25,3.4,11.76,3.4,19.52s-1.2,14.2-3.58,19.44c-2.39,5.22-5.71,9.14-9.96,11.73-4.25,2.6-9.16,3.9-14.71,3.9-4.21,0-7.85-.7-10.92-2.1-3.06-1.42-5.65-3.61-7.77-6.6l-1.29.25v109.52h-16.96ZM108.41,77.77c5.07,0,8.91-1.65,11.52-4.96,2.61-3.32,3.92-8.55,3.92-15.71s-1.31-12.38-3.92-15.71c-2.61-3.33-6.45-5-11.52-5-4.74,0-8.49,1.72-11.27,5.15-2.78,3.43-4.17,8.62-4.17,15.56s1.39,12.08,4.17,15.52c2.78,3.43,6.53,5.15,11.27,5.15Z"/>
      <path class="cls-2" d="M221.87,90.88V23.29h16.48v10.04l1.29.25c1.63-3.76,3.76-6.52,6.42-8.27,2.67-1.76,5.9-2.65,9.69-2.65s6.77.66,8.77,1.96l-2.88,14.65-1.29.25c-1.11-.44-2.18-.77-3.21-.98-1.02-.21-2.25-.31-3.71-.31-4.75,0-8.38,1.67-10.88,5-2.49,3.33-3.73,8.68-3.73,16.02v31.63h-16.96Z"/>
      <g>
        <path class="cls-2" d="M175.92,77.42c-7.96-1.56-11.93-8.34-11.9-20.35s4.02-18.81,11.99-20.34l.03-14.57c-5.07.42-9.63,1.7-13.66,3.88-5.01,2.7-8.9,6.68-11.67,11.95-2.76,5.26-4.15,11.61-4.17,19.03-.02,7.45,1.34,13.79,4.08,19.05,2.75,5.26,6.63,9.25,11.62,11.98,4.03,2.19,8.58,3.48,13.65,3.92l.03-14.57Z"/>
        <path class="cls-2" d="M208.91,38.13c-2.77-5.28-6.66-9.29-11.66-12.01-4-2.18-8.52-3.49-13.56-3.93l-.03,14.59c3.25.66,5.87,2.2,7.83,4.64,2.69,3.34,4.02,8.58,4.01,15.72-.03,11.97-4.01,18.72-11.93,20.28l-.03,14.58c5.04-.42,9.58-1.7,13.58-3.85,5.02-2.71,8.92-6.69,11.71-11.93,2.79-5.24,4.19-11.58,4.21-19.03s-1.36-13.78-4.12-19.05Z"/>
      </g>
      <g>
        <path class="cls-1" d="M175.93,36.75c-7.94,1.56-11.92,8.34-11.92,20.35s3.97,18.76,11.92,20.31v-40.67Z"/>
        <path class="cls-1" d="M191.45,41.4c-1.98-2.44-4.61-3.98-7.88-4.63v40.65c7.94-1.56,11.92-8.32,11.92-20.31,0-7.14-1.35-12.38-4.04-15.71Z"/>
      </g>
      <path class="cls-2" d="M65.39,177.48l4.31,12.27c-1.79,1.49-4.05,2.65-6.77,3.48-2.71.83-5.78,1.25-9.21,1.25-7.16,0-12.58-1.94-16.29-5.83-3.71-3.89-5.56-9.55-5.56-16.98v-31.38h-10.06v-13.17h10.06v-12.88l16.58-2.69v15.56h18.73v13.17h-18.73v30.19c0,3.28.67,5.67,2.02,7.17,1.36,1.49,3.34,2.23,5.94,2.23,2.96,0,5.53-.8,7.73-2.4h1.25Z"/>
      <path class="cls-2" d="M109.32,193.23v-52.94h-9.35v-13.17h9.35c-.68-2.79-1.02-5.4-1.02-7.83,0-4.19.96-7.78,2.88-10.75,1.92-2.97,4.67-5.23,8.25-6.79,3.59-1.57,7.86-2.35,12.81-2.35,7.3,0,12.76,1.26,16.35,3.77l-3.9,12.23-1.25.23c-2.47-1.75-5.65-2.63-9.52-2.63-3,0-5.25.73-6.75,2.19-1.49,1.46-2.23,3.45-2.23,5.96,0,1.07.07,2.06.21,2.96.14.91.39,1.91.75,3.02h21.62v13.17h-21.62v52.94h-16.58Z"/>
      <path class="cls-2" d="M153.13,221.19c-2.83,0-5.4-.22-7.69-.67-2.29-.43-4.16-1.01-5.6-1.73l2.65-13.42,1.06-.35c1,.51,2.23.93,3.71,1.25,1.48.32,3.01.48,4.56.48,2.68,0,4.9-.35,6.67-1.04,1.78-.7,3.28-1.85,4.52-3.48,1.25-1.61,2.35-3.85,3.31-6.73l-26.35-68.38h17.35l16.42,45.92h1.44l15.98-45.92h16.9l-26.52,70.17c-2.13,5.67-4.46,10.23-7,13.69-2.53,3.46-5.52,6.02-8.98,7.69-3.45,1.68-7.58,2.52-12.42,2.52Z"/>
    </g>
  </g>
</svg>